<mxfile host="app.diagrams.net" modified="2020-11-20T13:12:33.759Z" agent="5.0 (Windows NT 10.0; Win64; x64) AppleWebKit/537.36 (KHTML, like Gecko) Chrome/86.0.4240.198 Safari/537.36" etag="XkI7f3mLTt5RNHxRkbwl" version="13.10.0" type="github">
  <diagram id="x1JJyo3W1KWqe7CCuueB" name="Page-1">
    <mxGraphModel dx="1176" dy="529" grid="1" gridSize="10" guides="1" tooltips="1" connect="1" arrows="1" fold="1" page="1" pageScale="1" pageWidth="850" pageHeight="1100" math="0" shadow="0">
      <root>
        <mxCell id="0" />
        <mxCell id="1" parent="0" />
        <mxCell id="UYXViiQThttn1sbLCZOa-1" value="Admin" style="shape=umlActor;html=1;verticalLabelPosition=bottom;verticalAlign=top;align=center;" vertex="1" parent="1">
          <mxGeometry x="50" y="50" width="30" height="60" as="geometry" />
        </mxCell>
        <mxCell id="UYXViiQThttn1sbLCZOa-3" value="Notification Service" style="shape=umlActor;html=1;verticalLabelPosition=bottom;verticalAlign=top;align=center;" vertex="1" parent="1">
          <mxGeometry x="720" y="145" width="30" height="60" as="geometry" />
        </mxCell>
        <mxCell id="UYXViiQThttn1sbLCZOa-4" value="Inventory Manger" style="shape=umlActor;html=1;verticalLabelPosition=bottom;verticalAlign=top;align=center;" vertex="1" parent="1">
          <mxGeometry x="90" y="260" width="30" height="50" as="geometry" />
        </mxCell>
        <mxCell id="UYXViiQThttn1sbLCZOa-5" value="Supplier" style="shape=umlActor;html=1;verticalLabelPosition=bottom;verticalAlign=top;align=center;" vertex="1" parent="1">
          <mxGeometry x="690" y="330" width="30" height="60" as="geometry" />
        </mxCell>
        <mxCell id="UYXViiQThttn1sbLCZOa-7" value="Inventory Management System" style="shape=rect;html=1;verticalAlign=top;fontStyle=1;whiteSpace=wrap;align=center;" vertex="1" parent="1">
          <mxGeometry x="220" y="30" width="420" height="540" as="geometry" />
        </mxCell>
        <mxCell id="UYXViiQThttn1sbLCZOa-13" value="Profile Management" style="ellipse;whiteSpace=wrap;html=1;" vertex="1" parent="1">
          <mxGeometry x="262.5" y="140" width="130" height="60" as="geometry" />
        </mxCell>
        <mxCell id="UYXViiQThttn1sbLCZOa-14" value="Place Order" style="ellipse;whiteSpace=wrap;html=1;" vertex="1" parent="1">
          <mxGeometry x="267.5" y="220" width="130" height="60" as="geometry" />
        </mxCell>
        <mxCell id="UYXViiQThttn1sbLCZOa-15" value="Raise Invoice" style="ellipse;whiteSpace=wrap;html=1;" vertex="1" parent="1">
          <mxGeometry x="430" y="370" width="130" height="70" as="geometry" />
        </mxCell>
        <mxCell id="UYXViiQThttn1sbLCZOa-17" value="Login And Logout&amp;nbsp;" style="ellipse;whiteSpace=wrap;html=1;" vertex="1" parent="1">
          <mxGeometry x="267.5" y="60" width="130" height="70" as="geometry" />
        </mxCell>
        <mxCell id="UYXViiQThttn1sbLCZOa-23" value="&amp;lt;&amp;lt;include&amp;gt;&amp;gt;" style="edgeStyle=none;html=1;endArrow=open;verticalAlign=bottom;dashed=1;labelBackgroundColor=none;exitX=1;exitY=0.5;exitDx=0;exitDy=0;" edge="1" parent="1" source="UYXViiQThttn1sbLCZOa-17">
          <mxGeometry width="160" relative="1" as="geometry">
            <mxPoint x="420" y="110" as="sourcePoint" />
            <mxPoint x="490" y="95" as="targetPoint" />
          </mxGeometry>
        </mxCell>
        <mxCell id="UYXViiQThttn1sbLCZOa-24" value="Forgot password&lt;br&gt;ResetPassword" style="ellipse;whiteSpace=wrap;html=1;" vertex="1" parent="1">
          <mxGeometry x="475" y="60" width="140" height="70" as="geometry" />
        </mxCell>
        <mxCell id="UYXViiQThttn1sbLCZOa-25" value="View Invoice" style="ellipse;whiteSpace=wrap;html=1;" vertex="1" parent="1">
          <mxGeometry x="475" y="475" width="140" height="70" as="geometry" />
        </mxCell>
        <mxCell id="UYXViiQThttn1sbLCZOa-26" value="Update Order" style="ellipse;whiteSpace=wrap;html=1;" vertex="1" parent="1">
          <mxGeometry x="262.5" y="300" width="135" height="60" as="geometry" />
        </mxCell>
        <mxCell id="UYXViiQThttn1sbLCZOa-30" value="&lt;br&gt;Extension Points&lt;br&gt;View Invoice" style="html=1;shape=mxgraph.sysml.useCaseExtPt;whiteSpace=wrap;align=center;" vertex="1" parent="1">
          <mxGeometry x="252.5" y="470" width="160" height="80" as="geometry" />
        </mxCell>
        <mxCell id="UYXViiQThttn1sbLCZOa-31" value="Payment Method" style="resizable=0;html=1;verticalAlign=middle;align=center;labelBackgroundColor=none;fontStyle=1;" connectable="0" vertex="1" parent="UYXViiQThttn1sbLCZOa-30">
          <mxGeometry x="80" y="17" as="geometry" />
        </mxCell>
        <mxCell id="UYXViiQThttn1sbLCZOa-32" value="&amp;lt;&amp;lt;extend&amp;gt;&amp;gt;" style="edgeStyle=none;html=1;startArrow=open;endArrow=none;startSize=12;verticalAlign=bottom;dashed=1;labelBackgroundColor=none;exitX=1;exitY=0.5;exitDx=0;exitDy=0;exitPerimeter=0;entryX=0;entryY=0.5;entryDx=0;entryDy=0;" edge="1" parent="1" source="UYXViiQThttn1sbLCZOa-30" target="UYXViiQThttn1sbLCZOa-25">
          <mxGeometry width="160" relative="1" as="geometry">
            <mxPoint x="472" y="452" as="sourcePoint" />
            <mxPoint x="494" y="450" as="targetPoint" />
            <Array as="points" />
          </mxGeometry>
        </mxCell>
        <mxCell id="UYXViiQThttn1sbLCZOa-34" value="View Order" style="ellipse;whiteSpace=wrap;html=1;" vertex="1" parent="1">
          <mxGeometry x="412.5" y="260" width="140" height="70" as="geometry" />
        </mxCell>
        <mxCell id="UYXViiQThttn1sbLCZOa-37" value="Send Notification" style="ellipse;whiteSpace=wrap;html=1;" vertex="1" parent="1">
          <mxGeometry x="490" y="140" width="140" height="70" as="geometry" />
        </mxCell>
        <mxCell id="UYXViiQThttn1sbLCZOa-41" value="" style="edgeStyle=none;html=1;endArrow=none;verticalAlign=bottom;entryX=0;entryY=0.5;entryDx=0;entryDy=0;exitX=0.5;exitY=0.5;exitDx=0;exitDy=0;exitPerimeter=0;" edge="1" parent="1" source="UYXViiQThttn1sbLCZOa-1" target="UYXViiQThttn1sbLCZOa-17">
          <mxGeometry width="160" relative="1" as="geometry">
            <mxPoint x="63" y="90" as="sourcePoint" />
            <mxPoint x="440" y="120" as="targetPoint" />
          </mxGeometry>
        </mxCell>
        <mxCell id="UYXViiQThttn1sbLCZOa-42" value="" style="edgeStyle=none;html=1;endArrow=none;verticalAlign=bottom;exitX=0;exitY=0.5;exitDx=0;exitDy=0;entryX=0.5;entryY=0.5;entryDx=0;entryDy=0;entryPerimeter=0;" edge="1" parent="1" source="UYXViiQThttn1sbLCZOa-13" target="UYXViiQThttn1sbLCZOa-1">
          <mxGeometry width="160" relative="1" as="geometry">
            <mxPoint x="280" y="120" as="sourcePoint" />
            <mxPoint x="130" y="90" as="targetPoint" />
          </mxGeometry>
        </mxCell>
        <mxCell id="UYXViiQThttn1sbLCZOa-43" value="" style="edgeStyle=none;html=1;endArrow=none;verticalAlign=bottom;exitX=0;exitY=0.5;exitDx=0;exitDy=0;exitPerimeter=0;entryX=0.5;entryY=0.5;entryDx=0;entryDy=0;entryPerimeter=0;" edge="1" parent="1" source="UYXViiQThttn1sbLCZOa-30" target="UYXViiQThttn1sbLCZOa-1">
          <mxGeometry width="160" relative="1" as="geometry">
            <mxPoint x="280" y="420" as="sourcePoint" />
            <mxPoint x="130" y="80" as="targetPoint" />
          </mxGeometry>
        </mxCell>
        <mxCell id="UYXViiQThttn1sbLCZOa-44" value="" style="edgeStyle=none;html=1;endArrow=none;verticalAlign=bottom;exitX=0.5;exitY=0.5;exitDx=0;exitDy=0;exitPerimeter=0;entryX=0;entryY=0.5;entryDx=0;entryDy=0;" edge="1" parent="1" source="UYXViiQThttn1sbLCZOa-4" target="UYXViiQThttn1sbLCZOa-14">
          <mxGeometry width="160" relative="1" as="geometry">
            <mxPoint x="280" y="320" as="sourcePoint" />
            <mxPoint x="440" y="320" as="targetPoint" />
          </mxGeometry>
        </mxCell>
        <mxCell id="UYXViiQThttn1sbLCZOa-46" value="" style="edgeStyle=none;html=1;endArrow=none;verticalAlign=bottom;exitX=0.5;exitY=0.5;exitDx=0;exitDy=0;exitPerimeter=0;entryX=0;entryY=0.5;entryDx=0;entryDy=0;" edge="1" parent="1" source="UYXViiQThttn1sbLCZOa-4" target="UYXViiQThttn1sbLCZOa-26">
          <mxGeometry width="160" relative="1" as="geometry">
            <mxPoint x="280" y="320" as="sourcePoint" />
            <mxPoint x="440" y="320" as="targetPoint" />
          </mxGeometry>
        </mxCell>
        <mxCell id="UYXViiQThttn1sbLCZOa-47" value="" style="edgeStyle=none;html=1;endArrow=none;verticalAlign=bottom;exitX=0.5;exitY=0.5;exitDx=0;exitDy=0;exitPerimeter=0;entryX=0;entryY=0.5;entryDx=0;entryDy=0;" edge="1" parent="1" source="UYXViiQThttn1sbLCZOa-4" target="UYXViiQThttn1sbLCZOa-34">
          <mxGeometry width="160" relative="1" as="geometry">
            <mxPoint x="280" y="320" as="sourcePoint" />
            <mxPoint x="440" y="320" as="targetPoint" />
          </mxGeometry>
        </mxCell>
        <mxCell id="UYXViiQThttn1sbLCZOa-48" value="" style="edgeStyle=none;html=1;endArrow=none;verticalAlign=bottom;entryX=0.5;entryY=0.5;entryDx=0;entryDy=0;entryPerimeter=0;exitX=1;exitY=0.5;exitDx=0;exitDy=0;" edge="1" parent="1" source="UYXViiQThttn1sbLCZOa-37" target="UYXViiQThttn1sbLCZOa-3">
          <mxGeometry width="160" relative="1" as="geometry">
            <mxPoint x="280" y="320" as="sourcePoint" />
            <mxPoint x="440" y="320" as="targetPoint" />
          </mxGeometry>
        </mxCell>
        <mxCell id="UYXViiQThttn1sbLCZOa-49" value="" style="edgeStyle=none;html=1;endArrow=none;verticalAlign=bottom;entryX=0.5;entryY=0.5;entryDx=0;entryDy=0;entryPerimeter=0;exitX=1;exitY=0.5;exitDx=0;exitDy=0;" edge="1" parent="1" source="UYXViiQThttn1sbLCZOa-34" target="UYXViiQThttn1sbLCZOa-5">
          <mxGeometry width="160" relative="1" as="geometry">
            <mxPoint x="280" y="320" as="sourcePoint" />
            <mxPoint x="440" y="320" as="targetPoint" />
          </mxGeometry>
        </mxCell>
        <mxCell id="UYXViiQThttn1sbLCZOa-50" value="" style="edgeStyle=none;html=1;endArrow=none;verticalAlign=bottom;entryX=0.5;entryY=0.5;entryDx=0;entryDy=0;entryPerimeter=0;exitX=0.985;exitY=0.414;exitDx=0;exitDy=0;exitPerimeter=0;" edge="1" parent="1" source="UYXViiQThttn1sbLCZOa-15" target="UYXViiQThttn1sbLCZOa-5">
          <mxGeometry width="160" relative="1" as="geometry">
            <mxPoint x="280" y="320" as="sourcePoint" />
            <mxPoint x="440" y="320" as="targetPoint" />
          </mxGeometry>
        </mxCell>
        <mxCell id="UYXViiQThttn1sbLCZOa-51" value="" style="edgeStyle=none;html=1;endArrow=none;verticalAlign=bottom;exitX=0.5;exitY=0.5;exitDx=0;exitDy=0;exitPerimeter=0;entryX=0;entryY=0.5;entryDx=0;entryDy=0;" edge="1" parent="1" source="UYXViiQThttn1sbLCZOa-4" target="UYXViiQThttn1sbLCZOa-17">
          <mxGeometry width="160" relative="1" as="geometry">
            <mxPoint x="110" y="290" as="sourcePoint" />
            <mxPoint x="270" y="90" as="targetPoint" />
          </mxGeometry>
        </mxCell>
        <mxCell id="UYXViiQThttn1sbLCZOa-52" value="" style="edgeStyle=none;html=1;endArrow=none;verticalAlign=bottom;exitX=0;exitY=0.5;exitDx=0;exitDy=0;entryX=0.5;entryY=0.5;entryDx=0;entryDy=0;entryPerimeter=0;" edge="1" parent="1" source="UYXViiQThttn1sbLCZOa-13" target="UYXViiQThttn1sbLCZOa-4">
          <mxGeometry width="160" relative="1" as="geometry">
            <mxPoint x="280" y="220" as="sourcePoint" />
            <mxPoint x="110" y="290" as="targetPoint" />
          </mxGeometry>
        </mxCell>
        <mxCell id="UYXViiQThttn1sbLCZOa-53" value="" style="edgeStyle=none;html=1;endArrow=none;verticalAlign=bottom;entryX=1;entryY=1;entryDx=0;entryDy=0;exitX=0.5;exitY=0.5;exitDx=0;exitDy=0;exitPerimeter=0;" edge="1" parent="1" source="UYXViiQThttn1sbLCZOa-5" target="UYXViiQThttn1sbLCZOa-17">
          <mxGeometry width="160" relative="1" as="geometry">
            <mxPoint x="710" y="340" as="sourcePoint" />
            <mxPoint x="440" y="220" as="targetPoint" />
          </mxGeometry>
        </mxCell>
        <mxCell id="UYXViiQThttn1sbLCZOa-54" value="" style="edgeStyle=none;html=1;endArrow=none;verticalAlign=bottom;entryX=0.5;entryY=0.5;entryDx=0;entryDy=0;entryPerimeter=0;exitX=1;exitY=0.5;exitDx=0;exitDy=0;" edge="1" parent="1" source="UYXViiQThttn1sbLCZOa-13" target="UYXViiQThttn1sbLCZOa-5">
          <mxGeometry width="160" relative="1" as="geometry">
            <mxPoint x="280" y="220" as="sourcePoint" />
            <mxPoint x="440" y="220" as="targetPoint" />
          </mxGeometry>
        </mxCell>
        <mxCell id="UYXViiQThttn1sbLCZOa-57" value="" style="edgeStyle=none;html=1;endArrow=none;verticalAlign=bottom;entryX=0.5;entryY=0.5;entryDx=0;entryDy=0;entryPerimeter=0;exitX=0.5;exitY=0;exitDx=0;exitDy=0;" edge="1" parent="1" source="UYXViiQThttn1sbLCZOa-25" target="UYXViiQThttn1sbLCZOa-5">
          <mxGeometry width="160" relative="1" as="geometry">
            <mxPoint x="260" y="340" as="sourcePoint" />
            <mxPoint x="420" y="340" as="targetPoint" />
          </mxGeometry>
        </mxCell>
        <mxCell id="UYXViiQThttn1sbLCZOa-58" value="Manage Inventory Managers" style="ellipse;whiteSpace=wrap;html=1;" vertex="1" parent="1">
          <mxGeometry x="262.5" y="380" width="140" height="70" as="geometry" />
        </mxCell>
        <mxCell id="UYXViiQThttn1sbLCZOa-59" value="" style="edgeStyle=none;html=1;endArrow=none;verticalAlign=bottom;entryX=0;entryY=0.5;entryDx=0;entryDy=0;" edge="1" parent="1" target="UYXViiQThttn1sbLCZOa-58">
          <mxGeometry width="160" relative="1" as="geometry">
            <mxPoint x="65" y="80" as="sourcePoint" />
            <mxPoint x="420" y="330" as="targetPoint" />
          </mxGeometry>
        </mxCell>
      </root>
    </mxGraphModel>
  </diagram>
</mxfile>
